# xmcd
#
# Track frame offsets:
#	183
#	10023
#	22673
#	34838
#	44513
#	57198
#	66300
#	78273
#	89163
#	100625
#	115145
#	131725
#	145013
#	155375
#	167915
#	178618
#	194278
#
# Disc length: 2753 seconds
#
# Revision: 1
# Processed by: cddbd v1.5.1PL2 Copyright (c) Steve Scherf et al.
# Submitted via: audiograbber 1.83.01
#
DISCID=db0abf11
DTITLE=The Flatlanders - One Road More
DYEAR=1900
DGENRE=
TTITLE0=You've Never Seen Me Cry
TTITLE1=Dallas
TTITLE2=Tonight I Think I'm Gonna Go Downtown
TTITLE3=She Had Everything
TTITLE4=Bhagavan Decreed
TTITLE5=Rose From the Mountain
TTITLE6=Down in My Hometown
TTITLE7=One Road More
TTITLE8=Waitin' for a Train
TTITLE9=Hello Stranger
TTITLE10=One Day at a Time
TTITLE11=Stars in My Life
TTITLE12=Not So Long Ago
TTITLE13=I Know You
TTITLE14=The Heart You Left Behind
TTITLE15=Jole Bron
TTITLE16=Keeper of the Mountain
EXTD=
EXTT0=
EXTT1=
EXTT2=
EXTT3=
EXTT4=
EXTT5=
EXTT6=
EXTT7=
EXTT8=
EXTT9=
EXTT10=
EXTT11=
EXTT12=
EXTT13=
EXTT14=
EXTT15=
EXTT16=
PLAYORDER=
